<?xml version="1.0" encoding="UTF-8"?>
<svg width="414.9" height="249.45" data-name="Camada 1" version="1.1" viewBox="0 0 414.9 249.45" xmlns="http://www.w3.org/2000/svg">
 <defs>
  <style>.cls-1 {
        fill: none;
      }

      .cls-1, .cls-2, .cls-3, .cls-4 {
        stroke-width: 0px;
      }

      .cls-5 {
        clip-path: url(#clippath);
      }

      .cls-2 {
        fill: #fff;
      }

      .cls-3 {
        fill: #d3a156;
      }

      .cls-4 {
        fill: url(#Gradiente_sem_nome_182);
      }</style>
  <linearGradient id="Gradiente_sem_nome_182" x1="338.7" x2="477.26" y1="215.15" y2="215.15" data-name="Gradiente sem nome 182" gradientUnits="userSpaceOnUse">
   <stop stop-color="#965915" offset="0"/>
   <stop stop-color="#ddb14b" offset=".71"/>
   <stop stop-color="#f9e7a1" offset="1"/>
  </linearGradient>
  <clipPath id="clippath">
   <circle class="cls-1" cx="407.98" cy="215.15" r="69.28"/>
  </clipPath>
 </defs>
 <g transform="translate(-213.49,-145.87)">
  <path class="cls-3" d="m264.87 353.54v21.15c-2.97 2.1-6.14 3.71-9.5 4.83s-7.15 1.68-11.35 1.68c-4.71 0-8.94-0.72-12.7-2.17-3.76-1.44-6.96-3.49-9.61-6.14s-4.68-5.85-6.1-9.61c-1.42-3.75-2.12-7.93-2.12-12.53s0.69-8.77 2.08-12.51 3.38-6.94 5.97-9.59 5.72-4.69 9.4-6.14c3.67-1.44 7.81-2.17 12.4-2.17 2.27 0 4.37 0.15 6.29 0.46s3.71 0.76 5.36 1.37c1.65 0.6 3.2 1.35 4.62 2.23 1.43 0.88 2.8 1.9 4.12 3.05l-1.18 1.85c-0.39 0.67-0.98 0.83-1.77 0.46-0.42-0.17-1.02-0.56-1.81-1.18s-1.86-1.26-3.24-1.93c-1.37-0.67-3.08-1.27-5.11-1.81-2.03-0.53-4.51-0.8-7.42-0.8-3.87 0-7.36 0.62-10.49 1.85s-5.79 3-7.99 5.3-3.9 5.1-5.09 8.41-1.79 7.02-1.79 11.14 0.6 7.93 1.79 11.27 2.91 6.17 5.17 8.49c2.26 2.33 5 4.11 8.22 5.34s6.85 1.85 10.89 1.85c1.77 0 3.4-0.11 4.9-0.34 1.5-0.22 2.93-0.54 4.29-0.95s2.68-0.91 3.95-1.51 2.57-1.28 3.89-2.04v-16.02h-11.39c-0.31 0-0.57-0.1-0.78-0.29-0.21-0.2-0.32-0.42-0.32-0.67v-2.35h16.4z"/>
  <path class="cls-3" d="m280.34 348.79c0.64-1.71 1.38-3.23 2.21-4.56s1.78-2.46 2.86-3.38 2.28-1.63 3.62-2.12c1.33-0.49 2.81-0.74 4.44-0.74 0.87 0 1.72 0.08 2.56 0.23s1.58 0.43 2.23 0.82l-0.34 2.78c-0.14 0.45-0.41 0.67-0.8 0.67-0.34 0-0.85-0.1-1.53-0.29-0.69-0.2-1.59-0.29-2.71-0.29-1.63 0-3.06 0.25-4.31 0.74s-2.37 1.23-3.36 2.21c-1 0.98-1.86 2.19-2.61 3.64-0.74 1.44-1.42 3.1-2.04 4.98v27.07h-4.04v-41.83h2.14c0.48 0 0.81 0.1 1.01 0.29 0.2 0.2 0.32 0.53 0.38 1.01l0.29 8.79z"/>
  <path class="cls-3" d="m338.7 338.7v41.83h-2.23c-0.7 0-1.11-0.36-1.22-1.09l-0.38-6.22c-1.93 2.41-4.17 4.34-6.71 5.8s-5.36 2.19-8.47 2.19c-2.33 0-4.36-0.37-6.1-1.09-1.74-0.73-3.18-1.78-4.33-3.15s-2.02-3.03-2.61-4.96-0.88-4.12-0.88-6.56v-26.74h4.04v26.74c0 3.92 0.9 7 2.69 9.23s4.53 3.34 8.2 3.34c2.72 0 5.26-0.69 7.63-2.08s4.48-3.31 6.33-5.78v-31.45h4.04z"/>
  <path class="cls-3" d="m356.31 346.22c1.85-2.52 4.01-4.53 6.49-6.01 2.48-1.49 5.26-2.23 8.35-2.23 5.13 0 9.13 1.78 12 5.34s4.31 8.9 4.31 16.02c0 3.05-0.4 5.91-1.2 8.55-0.8 2.65-1.97 4.95-3.53 6.9-1.55 1.95-3.46 3.48-5.72 4.6s-4.86 1.68-7.8 1.68-5.28-0.52-7.36-1.56c-2.07-1.04-3.87-2.56-5.38-4.58v20.39h-4.04v-56.63h2.23c0.7 0 1.11 0.35 1.22 1.05l0.42 6.47zm0.17 25.18c0.81 1.21 1.66 2.22 2.54 3.05s1.81 1.5 2.8 2.02 2.02 0.89 3.13 1.11c1.11 0.23 2.28 0.34 3.51 0.34 2.46 0 4.62-0.45 6.47-1.35s3.4-2.17 4.65-3.8c1.25-1.64 2.19-3.6 2.82-5.89 0.63-2.28 0.95-4.8 0.95-7.55 0-6.22-1.15-10.8-3.45-13.73s-5.59-4.39-9.88-4.39c-2.78 0-5.28 0.71-7.53 2.14-2.24 1.43-4.25 3.42-6.01 5.97v22.07z"/>
  <path class="cls-3" d="m415.38 338.02c3 0 5.68 0.51 8.05 1.53s4.37 2.47 5.99 4.35 2.87 4.14 3.72 6.79 1.28 5.61 1.28 8.89-0.43 6.24-1.28 8.87c-0.86 2.63-2.1 4.89-3.72 6.77-1.63 1.88-3.62 3.32-5.99 4.33s-5.05 1.51-8.05 1.51-5.68-0.5-8.05-1.51-4.37-2.45-6.01-4.33-2.89-4.13-3.74-6.77c-0.86-2.63-1.28-5.59-1.28-8.87s0.43-6.24 1.28-8.89 2.1-4.91 3.74-6.79 3.64-3.33 6.01-4.35 5.05-1.53 8.05-1.53zm0 39.9c2.49 0 4.67-0.43 6.54-1.28 1.86-0.85 3.42-2.08 4.67-3.68s2.18-3.52 2.8-5.78c0.62-2.25 0.92-4.79 0.92-7.59s-0.31-5.3-0.92-7.57c-0.62-2.27-1.55-4.21-2.8-5.82s-2.8-2.85-4.67-3.72-4.04-1.3-6.54-1.3-4.67 0.43-6.54 1.3c-1.86 0.87-3.42 2.11-4.67 3.72s-2.19 3.55-2.82 5.82-0.95 4.79-0.95 7.57 0.32 5.33 0.95 7.59 1.57 4.18 2.82 5.78 2.8 2.82 4.67 3.68c1.86 0.86 4.04 1.28 6.54 1.28z"/>
  <path class="cls-3" d="m490.83 380.53h-7.23c-1.49 0-2.58-0.57-3.28-1.72l-15.64-21.53c-0.48-0.67-0.99-1.16-1.53-1.45s-1.39-0.44-2.54-0.44h-6.18v25.14h-8.11v-60.25h17.03c3.81 0 7.1 0.39 9.88 1.16 2.77 0.77 5.07 1.88 6.87 3.34 1.81 1.46 3.15 3.22 4.02 5.28s1.3 4.37 1.3 6.92c0 2.13-0.34 4.12-1.01 5.97s-1.65 3.51-2.92 4.98c-1.28 1.47-2.83 2.73-4.67 3.76-1.84 1.04-3.92 1.82-6.24 2.35 1.04 0.59 1.93 1.44 2.69 2.56l17.57 23.92zm-27.83-31.07c2.35 0 4.44-0.29 6.24-0.86 1.81-0.57 3.32-1.39 4.54-2.44s2.14-2.3 2.75-3.76c0.62-1.46 0.92-3.07 0.92-4.83 0-3.59-1.18-6.29-3.53-8.11s-5.89-2.73-10.59-2.73h-8.91v22.75h8.58z"/>
  <path class="cls-3" d="m554.06 350.42c0 4.51-0.71 8.65-2.14 12.42s-3.45 7.01-6.05 9.73c-2.61 2.72-5.74 4.83-9.4 6.33s-7.7 2.25-12.13 2.25-8.46-0.75-12.11-2.25c-3.64-1.5-6.77-3.61-9.38-6.33s-4.62-5.96-6.05-9.73-2.14-7.91-2.14-12.42 0.71-8.65 2.14-12.42 3.45-7.02 6.05-9.75c2.61-2.73 5.73-4.86 9.38-6.37 3.64-1.51 7.68-2.27 12.11-2.27s8.47 0.76 12.13 2.27 6.79 3.64 9.4 6.37 4.62 5.98 6.05 9.75 2.14 7.91 2.14 12.42zm-8.36 0c0-3.7-0.5-7.02-1.51-9.96s-2.44-5.43-4.29-7.46-4.09-3.59-6.73-4.69c-2.63-1.09-5.58-1.64-8.83-1.64s-6.15 0.55-8.79 1.64c-2.63 1.09-4.88 2.66-6.75 4.69-1.86 2.03-3.3 4.52-4.31 7.46s-1.51 6.26-1.51 9.96 0.5 7.01 1.51 9.94 2.44 5.41 4.31 7.44c1.86 2.03 4.11 3.59 6.75 4.67 2.63 1.08 5.56 1.62 8.79 1.62s6.19-0.54 8.83-1.62c2.63-1.08 4.88-2.63 6.73-4.67 1.85-2.03 3.28-4.51 4.29-7.44s1.51-6.24 1.51-9.94z"/>
  <path class="cls-3" d="m628.39 320.28v60.25h-7.15v-44.27c0-0.59 0.02-1.22 0.06-1.89s0.09-1.36 0.15-2.06l-20.68 37.67c-0.64 1.26-1.63 1.89-2.94 1.89h-1.18c-1.32 0-2.3-0.63-2.94-1.89l-21.1-37.84c0.17 1.49 0.25 2.86 0.25 4.12v44.27h-7.15v-60.25h6.01c0.73 0 1.29 0.07 1.68 0.21s0.77 0.53 1.14 1.18l20.81 37.08c0.34 0.67 0.67 1.37 0.99 2.1s0.62 1.47 0.9 2.23c0.28-0.76 0.57-1.51 0.88-2.25s0.64-1.45 1.01-2.12l20.43-37.04c0.34-0.64 0.71-1.04 1.11-1.18 0.41-0.14 0.97-0.21 1.7-0.21h6.01z"/>
  <circle class="cls-4" cx="407.98" cy="215.15" r="69.28" fill="url(#Gradiente_sem_nome_182)"/>
  <g class="cls-5" clip-path="url(#clippath)">
   <path class="cls-2" d="m518.2 254.09c-2.17 1.63-4.27 3.34-6.51 4.87-6.67 4.54-13.76 8.1-21.98 8.82-5 0.44-9.78-0.42-14.4-2.34-9.08-3.77-15.77-10.53-22.05-17.73-6.42-7.36-12.61-14.91-18.9-22.38-0.66-0.78-1.34-1.55-2.01-2.32l-0.56 0.28c-0.03 0.56-0.07 1.13-0.08 1.69-0.11 6.94 0 13.9-0.37 20.83-0.44 8.39-2.54 16.46-5.59 24.3-2.37 6.11-5.43 11.81-9.54 16.93-3.34 4.17-7.23 7.73-11.96 10.34 17.41-14.43 21.72-34.1 22.72-55.74-2.31 1.66-4.04 3.12-5.98 4.22-2.34 1.34-4.79 2.49-7.29 3.51-7.49 3.07-15.44 3.23-23.19 2.24-12.19-1.56-21.99-7.57-28.38-18.34-4.35-7.32-5.94-15.39-5.78-23.86 0.12-6.62 1.49-12.91 4.65-18.77 4.31-7.98 10.76-13.61 19.08-17.12 8.9-3.75 18.1-4.75 27.63-3.11 2.46 0.42 5.02 0.37 7.54 0.33 5.86-0.08 11.7 0.1 17.42 1.45 5.95 1.4 11.53 3.58 15.53 8.52 5.33 6.57 5.37 13.79 1.99 21.11-2.94 6.37-8.51 9.43-15.15 10.81-0.66 0.14-1.32 0.27-1.98 0.43-0.09 0.02-0.14 0.17-0.39 0.47h7.39c0.01 0.16 0.02 0.31 0.03 0.47-1.32 0.14-2.64 0.24-3.95 0.45-0.84 0.14-1.73 0.31-2.45 0.72-2.02 1.14-2.02 3.04-0.45 4.68 5.01 5.23 10.02 10.47 14.82 15.89 5.66 6.39 11.15 12.94 17.76 18.42 7.8 6.47 16.44 10.81 26.94 9.92 7.18-0.61 13.71-3.25 19.81-6.99 1.8-1.1 3.57-2.25 5.36-3.37 0.09 0.12 0.17 0.24 0.26 0.36zm-119.91-43.1h0.01c0-10.7 0-21.4-0.01-32.1 0-1.22-0.1-2.46-0.32-3.66-0.4-2.26-1.56-3.25-3.78-3.68-3.05-0.58-5.87 0.34-8.67 1.25-11.1 3.61-19.2 10.55-23.27 21.65-2.65 7.22-2.58 14.67-1.39 22.2 2.61 16.52 15.16 29.9 31.26 33.16 3.75 0.76 5.45-0.39 6.06-4.16 0.11-0.66 0.1-1.35 0.1-2.02v-32.65zm32.92-24.13c-0.64-0.67-0.94-0.94-1.19-1.26-2.74-3.43-5.86-6.46-9.66-8.72-4.74-2.81-9.65-5.09-15.34-5.17-1.63-0.02-2.07 0.49-2.06 2.11 0.06 11.62 0.03 23.23 0.03 34.85 0 0.65 0.06 1.3 0.09 2.09 1.01-0.15 1.8-0.22 2.57-0.4 3.6-0.84 7.16-0.68 10.79-0.07 3.85 0.65 7.77 1.32 11.66 1.31 5.38-0.01 10.32-1.82 14.12-5.81 7.8-8.2 8.08-25.5-7.47-31.47-5.85-2.25-11.96-2.68-18.15-2.57-0.25 0-0.49 0.2-1.11 0.48 1.14 0.45 1.95 0.69 2.69 1.07 3.98 2.03 7.96 4.06 11.89 6.19 0.53 0.29 1.04 1.08 1.09 1.68 0.15 1.7 0.05 3.43 0.05 5.68zm-12.19 27.24c-0.56-0.71-0.79-1.3-1.21-1.49-4.17-1.89-8.52-2.15-12.99-1.36-1.4 0.25-1.87 0.9-1.86 2.35 0.06 10.2 0.02 20.4 0.06 30.6 0 1.09 0.12 2.22 0.43 3.27 0.56 1.92 2.02 2.75 3.97 2.28 6.06-1.46 11.15-4.42 14.7-9.69 4.33-6.44 5.15-13.66 4.59-21.16-0.03-0.44-0.27-1-0.6-1.25-2.27-1.72-4.32-3.96-7.08-3.55z"/>
  </g>
 </g>
</svg>
